# xmcd
#
# Track frame offsets:
#	150
#	5592
#	13057
#	38755
#	46885
#	61287
#	87160
#	96327
#	117325
#	123142
#	137930
#	152095
#	158072
#
# Disc length: 2291 seconds
#
# Revision: 0
# Processed by: cddbd v1.5.2PL0 Copyright (c) Steve Scherf et al.
# Submitted via: audiograbber 1.83.01
#
DISCID=a108f10d
DTITLE=Alice Cooper - The Studio Albums 1969-1983 [CD 01) - Pretties For You
DYEAR=1969
DGENRE=Rock
TTITLE0=Titanic Overture
TTITLE1=10 Minutes Before The Worm
TTITLE2=Sing Low, Sweet Cheerio
TTITLE3=Today Mueller
TTITLE4=Living
TTITLE5=Fields Of Regret
TTITLE6=No Longer Umpire
TTITLE7=Levity Ball [live at the Cheetah]
TTITLE8=B.B. On Mars
TTITLE9=Reflected
TTITLE10=Apple Bush
TTITLE11=Earwigs To Eternity
TTITLE12=Changing Arranging
EXTD=
EXTT0=
EXTT1=
EXTT2=
EXTT3=
EXTT4=
EXTT5=
EXTT6=
EXTT7=
EXTT8=
EXTT9=
EXTT10=
EXTT11=
EXTT12=
PLAYORDER=
